<svg width="561" height="284" viewBox="0 0 561 284" fill="none" xmlns="http://www.w3.org/2000/svg">
    <path d="M2.5 43.5V37.5C2.5 37.5 19.7932 34.5113 27 27C33.9788 19.7264 36.5 3 36.5 3H524.5C524.5 3 527.192 20.1929 534.5 27.5C541.68 34.6795 558.5 37.5 558.5 37.5V43.5C556.257 42.9679 550.897 45.9007 550.5 48.5V56.5C552.138 60.7746 553.971 61.9828 558.5 62.5V68.5C553.941 69.1143 552.247 70.2629 550.5 73.5V82.5C552.202 86.5655 554.003 87.819 558.5 88.5V93.5C554.95 94.5982 553.155 95.7868 550.5 99.5V108.5C552.668 111.53 554.473 112.565 558.5 113.5V119.5C554.942 120.559 553.168 121.607 550.5 124.5V134.5C553.052 137.496 554.791 138.404 558.5 138.5V144.5C554.18 145.624 552.488 147 550.5 150.5V159.5C552.875 162.666 554.677 163.68 558.5 164.5V170.5C554.414 171.728 552.617 172.99 550.5 176.5V185.5C552.358 188.383 554.112 189.476 558.5 190.5V196C554.643 196.406 552.856 197.524 550.5 201.5V210.5C552.662 213.63 554.465 214.662 558.5 215.5V221.5C554.279 222.826 552.427 224.046 550.5 227.5V236.5C552.32 239.382 554.04 240.499 558.5 241.5V246.5C534.234 252.015 527.162 259.955 524.5 281.5H36.5C36.5 281.5 36.5 266.5 27.5 257C18.5 247.5 2.5 246.5 2.5 246.5V241.5C2.5 241.5 5.5 241 8 239C10.5 237 10.5 234.5 10.5 234.5V228.5C9 224 8.5 223 2.5 221.5V215.5C7.3 214.7 9.83333 210.5 10.5 208.5V202.5C10.5 202.5 10 200.5 7.5 198.5C5 196.5 2.5 196.5 2.5 196.5V190.5C2.5 190.5 5.5 189.5 7.5 188C9.5 186.5 10.5 183.5 10.5 183.5V177.5C10.5 173.9 5.16667 171.333 2.5 170.5V164.5C6.9 163.7 9.66667 159.5 10.5 157.5V151.5C10.5 151.5 10 149.5 7.5 147.5C5 145.5 2.5 145.5 2.5 145.5V139.5C2.5 139.5 5.5 139 8 136.5C10.5 134 10.5 131.5 10.5 131.5V126.5C10.5 122.5 5.33333 120.167 2.5 119.5V113.5C2.5 113.5 5 113 7 111.5C9 110 10.5 106.5 10.5 106.5V100.5C10.5 100.5 10 98.5 7.5 96.5C5 94.5 2.5 94.5 2.5 94.5V88.5C2.5 88.5 6.21066 87.2893 7.5 86C10.5 83 10.4026 81.9613 10.5 80.5V74.5C10.5 69.3 5.16667 68.3333 2.5 68.5V62.5C2.5 62.5 5 61.5 7 60C9 58.5 10.5 55.5 10.5 55.5V49.5C8.5 45.5 7 44.5 2.5 43.5Z" fill="url(#paint0_linear)" stroke="black" stroke-width="5" />
    <path d="M40 59C40 49.0589 48.0589 41 58 41H503C512.941 41 521 49.0589 521 59V226C521 235.941 512.941 244 503 244H58C48.0589 244 40 235.941 40 226V59Z" stroke="black" stroke-width="6" />
    <path d="M128.798 64.6494H103.433V135H93.0811V64.6494H67.77V56.0859H128.798V64.6494ZM151.67 135H141.264V56.0859H151.67V135ZM228.796 109.96C227.82 118.307 224.731 124.756 219.528 129.309C214.361 133.826 207.478 136.084 198.878 136.084C189.556 136.084 182.076 132.742 176.439 126.057C170.839 119.373 168.039 110.43 168.039 99.2285V91.6406C168.039 84.3057 169.339 77.856 171.941 72.2915C174.579 66.7271 178.3 62.4634 183.106 59.5005C187.912 56.5015 193.476 55.002 199.799 55.002C208.182 55.002 214.903 57.3506 219.961 62.0479C225.02 66.709 227.965 73.1768 228.796 81.4512H218.335C217.432 75.1641 215.463 70.6113 212.428 67.793C209.429 64.9746 205.219 63.5654 199.799 63.5654C193.151 63.5654 187.93 66.0225 184.136 70.9365C180.378 75.8506 178.499 82.8423 178.499 91.9116V99.5537C178.499 108.117 180.288 114.928 183.865 119.987C187.442 125.045 192.446 127.575 198.878 127.575C204.659 127.575 209.085 126.274 212.157 123.672C215.264 121.035 217.324 116.464 218.335 109.96H228.796ZM263.104 98.3071L253.457 108.334V135H243.05V56.0859H253.457V95.1094L288.523 56.0859H301.098L270.042 90.936L303.537 135H291.071L263.104 98.3071ZM357.248 98.5239H323.048V126.491H362.776V135H312.642V56.0859H362.234V64.6494H323.048V90.0146H357.248V98.5239ZM431.338 64.6494H405.973V135H395.621V64.6494H370.31V56.0859H431.338V64.6494Z" fill="black" />
    <line x1="458" y1="38" x2="458" y2="244" stroke="black" stroke-width="2" />
    <path d="M119.558 171.053L128.381 144.065L137.204 171.053L114.073 154.363H142.688" fill="black" />
    <path d="M173.558 171.053L182.381 144.065L191.204 171.053L168.073 154.363H196.688" fill="black" />
    <path d="M226.558 171.053L235.381 144.065L244.204 171.053L221.073 154.363H249.688" fill="black" />
    <path d="M280.558 171.053L289.381 144.065L298.204 171.053L275.073 154.363H303.688" fill="black" />
    <path d="M337.558 171.053L346.381 144.065L355.204 171.053L332.073 154.363H360.688" fill="black" />
    <path d="M177.956 214.738C179.599 214.738 181.035 214.24 182.264 213.244C183.492 212.248 184.173 211.002 184.306 209.508H188.664C188.581 211.052 188.049 212.521 187.07 213.916C186.09 215.311 184.779 216.423 183.135 217.253C181.508 218.083 179.782 218.498 177.956 218.498C174.287 218.498 171.365 217.278 169.19 214.837C167.032 212.38 165.953 209.027 165.953 204.777V204.005C165.953 201.382 166.434 199.049 167.397 197.007C168.36 194.965 169.738 193.38 171.531 192.251C173.34 191.122 175.474 190.558 177.931 190.558C180.952 190.558 183.459 191.462 185.451 193.272C187.46 195.082 188.531 197.431 188.664 200.319H184.306C184.173 198.576 183.509 197.148 182.313 196.036C181.135 194.907 179.674 194.343 177.931 194.343C175.59 194.343 173.772 195.189 172.477 196.883C171.199 198.56 170.56 200.992 170.56 204.179V205.051C170.56 208.155 171.199 210.546 172.477 212.223C173.755 213.899 175.582 214.738 177.956 214.738ZM192.623 204.279C192.623 201.639 193.138 199.265 194.167 197.157C195.213 195.048 196.657 193.421 198.5 192.276C200.359 191.13 202.476 190.558 204.85 190.558C208.519 190.558 211.482 191.828 213.74 194.368C216.015 196.908 217.152 200.286 217.152 204.503V204.827C217.152 207.45 216.646 209.807 215.633 211.899C214.637 213.974 213.201 215.593 211.325 216.755C209.465 217.917 207.324 218.498 204.9 218.498C201.248 218.498 198.284 217.228 196.01 214.688C193.752 212.148 192.623 208.786 192.623 204.603V204.279ZM197.255 204.827C197.255 207.815 197.944 210.214 199.322 212.023C200.716 213.833 202.576 214.738 204.9 214.738C207.241 214.738 209.1 213.825 210.478 211.999C211.856 210.156 212.545 207.583 212.545 204.279C212.545 201.324 211.839 198.933 210.428 197.107C209.034 195.264 207.174 194.343 204.85 194.343C202.576 194.343 200.741 195.248 199.347 197.057C197.952 198.867 197.255 201.457 197.255 204.827ZM227.262 191.056L227.387 194.044C229.362 191.72 232.027 190.558 235.38 190.558C239.149 190.558 241.714 192.002 243.075 194.891C243.972 193.596 245.134 192.55 246.562 191.753C248.006 190.956 249.708 190.558 251.667 190.558C257.577 190.558 260.582 193.687 260.681 199.946V218H256.074V200.22C256.074 198.294 255.634 196.858 254.754 195.912C253.875 194.949 252.397 194.467 250.322 194.467C248.612 194.467 247.192 194.982 246.063 196.011C244.935 197.024 244.279 198.394 244.096 200.12V218H239.464V200.344C239.464 196.426 237.547 194.467 233.712 194.467C230.69 194.467 228.624 195.754 227.511 198.327V218H222.904V191.056H227.262ZM267.753 215.584C267.753 214.788 267.986 214.124 268.451 213.592C268.932 213.061 269.646 212.795 270.592 212.795C271.539 212.795 272.252 213.061 272.734 213.592C273.232 214.124 273.481 214.788 273.481 215.584C273.481 216.348 273.232 216.987 272.734 217.502C272.252 218.017 271.539 218.274 270.592 218.274C269.646 218.274 268.932 218.017 268.451 217.502C267.986 216.987 267.753 216.348 267.753 215.584ZM303.912 204.827C303.912 208.944 302.965 212.256 301.073 214.763C299.18 217.253 296.64 218.498 293.453 218.498C290.049 218.498 287.418 217.294 285.559 214.887L285.334 218H281.101V179.75H285.708V194.019C287.567 191.711 290.132 190.558 293.403 190.558C296.673 190.558 299.238 191.794 301.098 194.268C302.974 196.742 303.912 200.128 303.912 204.428V204.827ZM299.305 204.304C299.305 201.166 298.699 198.742 297.487 197.032C296.275 195.322 294.532 194.467 292.257 194.467C289.219 194.467 287.036 195.878 285.708 198.701V210.355C287.119 213.177 289.319 214.588 292.307 214.588C294.515 214.588 296.233 213.733 297.462 212.023C298.69 210.313 299.305 207.74 299.305 204.304ZM308.519 204.279C308.519 201.639 309.033 199.265 310.062 197.157C311.108 195.048 312.553 193.421 314.396 192.276C316.255 191.13 318.372 190.558 320.746 190.558C324.415 190.558 327.378 191.828 329.636 194.368C331.91 196.908 333.047 200.286 333.047 204.503V204.827C333.047 207.45 332.541 209.807 331.528 211.899C330.532 213.974 329.096 215.593 327.22 216.755C325.361 217.917 323.219 218.498 320.795 218.498C317.143 218.498 314.18 217.228 311.905 214.688C309.647 212.148 308.519 208.786 308.519 204.603V204.279ZM313.15 204.827C313.15 207.815 313.839 210.214 315.217 212.023C316.612 213.833 318.471 214.738 320.795 214.738C323.136 214.738 324.996 213.825 326.374 211.999C327.751 210.156 328.44 207.583 328.44 204.279C328.44 201.324 327.735 198.933 326.324 197.107C324.929 195.264 323.07 194.343 320.746 194.343C318.471 194.343 316.637 195.248 315.242 197.057C313.848 198.867 313.15 201.457 313.15 204.827Z" fill="black" />
    <defs>
        <linearGradient id="paint0_linear" x1="280.5" y1="3" x2="280" y2="542.5" gradientUnits="userSpaceOnUse">
            <stop stop-color="#5BC0DE" />
            <stop offset="1" stop-color="#C4C4C4" stop-opacity="0" />
        </linearGradient>
    </defs>
</svg>
