<svg width="559" height="281" viewBox="0 0 559 281" fill="none" xmlns="http://www.w3.org/2000/svg">
    <path d="M1.5 41.5V35.5C1.5 35.5 18.7932 32.5113 26 25C32.9788 17.7264 35.5 1 35.5 1H523.5C523.5 1 526.192 18.1929 533.5 25.5C540.68 32.6795 557.5 35.5 557.5 35.5V41.5C555.257 40.9679 549.897 43.9007 549.5 46.5V54.5C551.138 58.7746 552.971 59.9828 557.5 60.5V66.5C552.941 67.1143 551.247 68.2629 549.5 71.5V80.5C551.202 84.5655 553.003 85.819 557.5 86.5V91.5C553.95 92.5982 552.155 93.7868 549.5 97.5V106.5C551.668 109.53 553.473 110.565 557.5 111.5V117.5C553.942 118.559 552.168 119.607 549.5 122.5V132.5C552.052 135.496 553.791 136.404 557.5 136.5V142.5C553.18 143.624 551.488 145 549.5 148.5V157.5C551.875 160.666 553.677 161.68 557.5 162.5V168.5C553.414 169.728 551.617 170.99 549.5 174.5V183.5C551.358 186.383 553.112 187.476 557.5 188.5V194C553.643 194.406 551.856 195.524 549.5 199.5V208.5C551.662 211.63 553.465 212.662 557.5 213.5V219.5C553.279 220.826 551.427 222.046 549.5 225.5V234.5C551.32 237.382 553.04 238.499 557.5 239.5V244.5C533.234 250.015 526.162 257.955 523.5 279.5H35.5C35.5 279.5 35.5 264.5 26.5 255C17.5 245.5 1.5 244.5 1.5 244.5V239.5C1.5 239.5 4.5 239 7 237C9.5 235 9.5 232.5 9.5 232.5V226.5C8 222 7.5 221 1.5 219.5V213.5C6.3 212.7 8.83333 208.5 9.5 206.5V200.5C9.5 200.5 9 198.5 6.5 196.5C4 194.5 1.5 194.5 1.5 194.5V188.5C1.5 188.5 4.5 187.5 6.5 186C8.5 184.5 9.5 181.5 9.5 181.5V175.5C9.5 171.9 4.16667 169.333 1.5 168.5V162.5C5.9 161.7 8.66667 157.5 9.5 155.5V149.5C9.5 149.5 9 147.5 6.5 145.5C4 143.5 1.5 143.5 1.5 143.5V137.5C1.5 137.5 4.5 137 7 134.5C9.5 132 9.5 129.5 9.5 129.5V124.5C9.5 120.5 4.33333 118.167 1.5 117.5V111.5C1.5 111.5 4 111 6 109.5C8 108 9.5 104.5 9.5 104.5V98.5C9.5 98.5 9 96.5 6.5 94.5C4 92.5 1.5 92.5 1.5 92.5V86.5C1.5 86.5 5.21066 85.2893 6.5 84C9.5 81 9.40258 79.9613 9.5 78.5V72.5C9.5 67.3 4.16667 66.3333 1.5 66.5V60.5C1.5 60.5 4 59.5 6 58C8 56.5 9.5 53.5 9.5 53.5V47.5C7.5 43.5 6 42.5 1.5 41.5Z" stroke="black" stroke-width="2"/>
    <path d="M57 39H502C511.941 39 520 47.0589 520 57V224C520 233.941 511.941 242 502 242H57C47.0589 242 39 233.941 39 224V57C39 47.0589 47.0589 39 57 39Z" stroke="black" stroke-width="6"/>
    <path d="M127.798 62.6494H102.433V133H92.0811V62.6494H66.77V54.0859H127.798V62.6494ZM150.67 133H140.264V54.0859H150.67V133ZM227.796 107.96C226.82 116.307 223.731 122.756 218.528 127.309C213.361 131.826 206.478 134.084 197.878 134.084C188.556 134.084 181.076 130.742 175.439 124.057C169.839 117.373 167.039 108.43 167.039 97.2285V89.6406C167.039 82.3057 168.339 75.856 170.941 70.2915C173.579 64.7271 177.3 60.4634 182.106 57.5005C186.912 54.5015 192.476 53.002 198.799 53.002C207.182 53.002 213.903 55.3506 218.961 60.0479C224.02 64.709 226.965 71.1768 227.796 79.4512H217.335C216.432 73.1641 214.463 68.6113 211.428 65.793C208.429 62.9746 204.219 61.5654 198.799 61.5654C192.151 61.5654 186.93 64.0225 183.136 68.9365C179.378 73.8506 177.499 80.8423 177.499 89.9116V97.5537C177.499 106.117 179.288 112.928 182.865 117.987C186.442 123.045 191.446 125.575 197.878 125.575C203.659 125.575 208.085 124.274 211.157 121.672C214.264 119.035 216.324 114.464 217.335 107.96H227.796ZM262.104 96.3071L252.457 106.334V133H242.05V54.0859H252.457V93.1094L287.523 54.0859H300.098L269.042 88.936L302.537 133H290.071L262.104 96.3071ZM356.248 96.5239H322.048V124.491H361.776V133H311.642V54.0859H361.234V62.6494H322.048V88.0146H356.248V96.5239ZM430.338 62.6494H404.973V133H394.621V62.6494H369.31V54.0859H430.338V62.6494Z" fill="black"/>
    <line x1="457" y1="36" x2="457" y2="242" stroke="black" stroke-width="2"/>
    <path d="M118.558 169.053L127.381 142.065L136.204 169.053L113.073 152.363H141.688" fill="black"/>
    <path d="M172.558 169.053L181.381 142.065L190.204 169.053L167.073 152.363H195.688" fill="black"/>
    <path d="M225.558 169.053L234.381 142.065L243.204 169.053L220.073 152.363H248.688" fill="black"/>
    <path d="M279.558 169.053L288.381 142.065L297.204 169.053L274.073 152.363H302.688" fill="black"/>
    <path d="M336.558 169.053L345.381 142.065L354.204 169.053L331.073 152.363H359.688" fill="black"/>
    <path d="M193.79 202.505C195.046 202.505 196.145 202.125 197.084 201.363C198.023 200.601 198.544 199.649 198.646 198.506H201.978C201.915 199.687 201.508 200.811 200.759 201.877C200.01 202.943 199.007 203.794 197.75 204.429C196.506 205.063 195.186 205.381 193.79 205.381C190.984 205.381 188.75 204.448 187.086 202.582C185.436 200.703 184.611 198.138 184.611 194.888V194.298C184.611 192.292 184.979 190.508 185.715 188.947C186.452 187.385 187.505 186.173 188.876 185.31C190.26 184.446 191.892 184.015 193.771 184.015C196.081 184.015 197.998 184.707 199.521 186.09C201.058 187.474 201.876 189.271 201.978 191.479H198.646C198.544 190.146 198.036 189.055 197.122 188.204C196.221 187.341 195.104 186.909 193.771 186.909C191.98 186.909 190.59 187.557 189.6 188.852C188.623 190.134 188.134 191.994 188.134 194.431V195.098C188.134 197.472 188.623 199.3 189.6 200.582C190.578 201.864 191.974 202.505 193.79 202.505ZM205.006 194.507C205.006 192.489 205.399 190.673 206.187 189.061C206.986 187.449 208.091 186.205 209.5 185.329C210.922 184.453 212.541 184.015 214.356 184.015C217.162 184.015 219.428 184.986 221.154 186.928C222.894 188.871 223.763 191.454 223.763 194.679V194.926C223.763 196.932 223.376 198.735 222.602 200.334C221.84 201.921 220.742 203.159 219.307 204.048C217.885 204.937 216.248 205.381 214.394 205.381C211.601 205.381 209.335 204.41 207.596 202.467C205.869 200.525 205.006 197.954 205.006 194.755V194.507ZM208.548 194.926C208.548 197.211 209.075 199.046 210.128 200.43C211.195 201.813 212.617 202.505 214.394 202.505C216.184 202.505 217.606 201.807 218.66 200.411C219.713 199.001 220.24 197.034 220.24 194.507C220.24 192.248 219.701 190.419 218.622 189.023C217.555 187.614 216.133 186.909 214.356 186.909C212.617 186.909 211.214 187.601 210.147 188.985C209.081 190.369 208.548 192.349 208.548 194.926ZM231.495 184.396L231.59 186.681C233.101 184.903 235.138 184.015 237.703 184.015C240.584 184.015 242.546 185.119 243.587 187.328C244.272 186.338 245.161 185.538 246.253 184.929C247.357 184.319 248.659 184.015 250.157 184.015C254.676 184.015 256.974 186.408 257.05 191.194V205H253.527V191.403C253.527 189.931 253.191 188.833 252.518 188.109C251.845 187.373 250.715 187.004 249.128 187.004C247.821 187.004 246.735 187.398 245.872 188.185C245.009 188.959 244.507 190.007 244.368 191.327V205H240.826V191.499C240.826 188.502 239.359 187.004 236.427 187.004C234.116 187.004 232.536 187.988 231.685 189.956V205H228.162V184.396H231.495ZM262.458 203.153C262.458 202.543 262.636 202.036 262.992 201.629C263.36 201.223 263.906 201.02 264.629 201.02C265.353 201.02 265.899 201.223 266.267 201.629C266.648 202.036 266.838 202.543 266.838 203.153C266.838 203.737 266.648 204.226 266.267 204.619C265.899 205.013 265.353 205.209 264.629 205.209C263.906 205.209 263.36 205.013 262.992 204.619C262.636 204.226 262.458 203.737 262.458 203.153ZM290.109 194.926C290.109 198.075 289.385 200.607 287.938 202.524C286.491 204.429 284.548 205.381 282.111 205.381C279.508 205.381 277.496 204.46 276.074 202.62L275.903 205H272.666V175.75H276.188V186.662C277.61 184.897 279.572 184.015 282.073 184.015C284.574 184.015 286.535 184.96 287.957 186.852C289.392 188.744 290.109 191.333 290.109 194.622V194.926ZM286.586 194.526C286.586 192.127 286.123 190.273 285.196 188.966C284.269 187.658 282.936 187.004 281.197 187.004C278.874 187.004 277.204 188.083 276.188 190.242V199.154C277.268 201.312 278.95 202.391 281.235 202.391C282.923 202.391 284.237 201.737 285.177 200.43C286.116 199.122 286.586 197.154 286.586 194.526ZM293.632 194.507C293.632 192.489 294.025 190.673 294.812 189.061C295.612 187.449 296.717 186.205 298.126 185.329C299.548 184.453 301.167 184.015 302.982 184.015C305.788 184.015 308.054 184.986 309.78 186.928C311.52 188.871 312.389 191.454 312.389 194.679V194.926C312.389 196.932 312.002 198.735 311.228 200.334C310.466 201.921 309.368 203.159 307.933 204.048C306.511 204.937 304.874 205.381 303.02 205.381C300.227 205.381 297.961 204.41 296.222 202.467C294.495 200.525 293.632 197.954 293.632 194.755V194.507ZM297.174 194.926C297.174 197.211 297.701 199.046 298.754 200.43C299.821 201.813 301.243 202.505 303.02 202.505C304.81 202.505 306.232 201.807 307.286 200.411C308.339 199.001 308.866 197.034 308.866 194.507C308.866 192.248 308.327 190.419 307.248 189.023C306.181 187.614 304.759 186.909 302.982 186.909C301.243 186.909 299.84 187.601 298.773 188.985C297.707 190.369 297.174 192.349 297.174 194.926Z" fill="black"/>
</svg>
