<svg width="97" height="95" viewBox="0 0 109 95" fill="none" xmlns="http://www.w3.org/2000/svg">
    <path d="M6 32.8431C7.20989 26.9894 9.08414 24.9105 14.8504 23.6387C19.1563 22.9868 21.5571 24.1228 25.8248 28.7719V18.3285C26.0357 13.4625 31.8431 8.41606 34.6752 8.41606C37.5073 8.41606 42.3843 11.425 44.5876 15.8504C47.9384 9.73656 50.0056 7.27125 54.5 7C59.6898 7.37752 61.0445 10.1472 62.9964 15.8504C66.4251 9.96665 68.9312 8.41568 74.3248 8.41606C78.9595 8.85038 80.8842 11.3206 83.5292 18.3285C85.7535 13.491 87.5531 11.8928 93.0876 13.7263C98.491 15.6698 100.249 18.3584 103 23.6387V50.5438C102.985 58.4356 97.5341 66.6269 89.1934 80.281V88.7774H34.6752V77.4489L34.139 77.06C16.7436 64.4425 6.82615 57.2491 6 50.5438V32.8431Z" fill="white"/>
    <path d="M25.8248 39.2153V28.7719M25.8248 28.7719V18.3285C26.0357 13.4625 31.8431 8.41606 34.6752 8.41606C37.5073 8.41606 42.3843 11.425 44.5876 15.8504C47.9384 9.73656 50.0056 7.27125 54.5 7C59.6898 7.37752 61.0445 10.1472 62.9964 15.8504C66.4251 9.96665 68.9312 8.41568 74.3248 8.41606C78.9595 8.85038 80.8842 11.3206 83.5292 18.3285C85.7535 13.491 87.5531 11.8928 93.0876 13.7263C98.491 15.6698 100.249 18.3584 103 23.6387V50.5438C102.985 58.4356 97.5341 66.6269 89.1934 80.281V88.7774H34.6752V77.4489C16.9475 64.5898 6.8346 57.3177 6 50.5438V32.8431C7.20989 26.9894 9.08414 24.9105 14.8504 23.6387C19.1563 22.9868 21.5571 24.1228 25.8248 28.7719Z" stroke="black" stroke-width="12"/>
</svg>
